<svg width="1600" height="900" viewBox="0 0 1600 900" fill="none" xmlns="http://www.w3.org/2000/svg">
  <rect width="1600" height="900" fill="#0D0D0D"/>
  <rect width="1600" height="900" fill="url(#paint0_radial)"/>
  <path d="M840 0L1160 900" stroke="url(#paint1_linear)" stroke-width="2"/>
  <path d="M760 0L1080 900" stroke="url(#paint2_linear)" stroke-width="2"/>
  <path d="M240 900L760 0" stroke="url(#paint3_linear)" stroke-width="2"/>
  <path d="M0 720C210 650 400 620 624 612C896 602 1160 650 1600 840V900H0V720Z" fill="url(#paint4_linear)"/>
  <path d="M540 542C616 512 706 502 832 504C970 506 1082 536 1164 592L1122 602C1044 562 942 540 834 538C722 536 642 548 576 574L540 542Z" fill="#F4E5D6" fill-opacity="0.84"/>
  <path d="M620 588C694 568 778 560 864 562C964 564 1046 582 1118 628L1090 658C1036 626 956 610 866 608C774 606 694 618 636 640L620 588Z" fill="#B18C6A"/>
  <text x="154" y="744" fill="white" fill-opacity="0.9" font-family="Avenir Next, Segoe UI, sans-serif" font-size="20" font-weight="600" letter-spacing="8">SPAINMOTORS CARS</text>
  <defs>
    <radialGradient id="paint0_radial" cx="0" cy="0" r="1" gradientUnits="userSpaceOnUse" gradientTransform="translate(1128 210) rotate(138.152) scale(1095.76 760.806)">
      <stop stop-color="#403329"/>
      <stop offset="1" stop-color="#0D0D0D"/>
    </radialGradient>
    <linearGradient id="paint1_linear" x1="840" y1="0" x2="1160" y2="900" gradientUnits="userSpaceOnUse">
      <stop stop-color="white" stop-opacity="0"/>
      <stop offset="1" stop-color="white" stop-opacity="0.18"/>
    </linearGradient>
    <linearGradient id="paint2_linear" x1="760" y1="0" x2="1080" y2="900" gradientUnits="userSpaceOnUse">
      <stop stop-color="white" stop-opacity="0"/>
      <stop offset="1" stop-color="white" stop-opacity="0.12"/>
    </linearGradient>
    <linearGradient id="paint3_linear" x1="240" y1="900" x2="760" y2="0" gradientUnits="userSpaceOnUse">
      <stop stop-color="white" stop-opacity="0.1"/>
      <stop offset="1" stop-color="white" stop-opacity="0"/>
    </linearGradient>
    <linearGradient id="paint4_linear" x1="800" y1="612" x2="800" y2="900" gradientUnits="userSpaceOnUse">
      <stop stop-color="#141414" stop-opacity="0"/>
      <stop offset="1" stop-color="#090909"/>
    </linearGradient>
  </defs>
</svg>

